# xmcd CD database file
#
# Track frame offsets:
#	150
#	19334
#	35665
#	42102
#	43644
#	44616
#	45369
#	46447
#	47214
#	48371
#	49929
#	68979
#	88046
#	92612
#	95817
#	99156
#	100770
#	101839
#	102432
#	104306
#	106049
#	134160
#	137013
#	141574
#	156244
#	161671
#	167110
#	168067
#	168668
#	197208
#	199696
#	200952
#	223987
#	230190
#	240587
#	254346
#	270788
#	293910
#	304340
#
# Disc length: 4415 seconds
#
# Revision: 0
# Processed by: cddbd v1.5.1PL0 Copyright (c) Steve Scherf et al.
# Submitted via: CDex 1.51
#
DISCID=4c113d27
DTITLE=Sonoton Authentic Series - SAS 210 - India Today
DYEAR=1999
DGENRE=Contentum
TTITLE0=The Symbol of Love 1
TTITLE1=The Symbol of Love 2
TTITLE2=The Symbol of Love 3
TTITLE3=The Symbol of Love 4
TTITLE4=The Symbol of Love 5
TTITLE5=The Symbol of Love 6
TTITLE6=The Symbol of Love 7
TTITLE7=The Symbol of Love 8
TTITLE8=The Symbol of Love 9
TTITLE9=The Symbol of Love 10
TTITLE10=Confusion and Conclusion 1
TTITLE11=Confusion and Conclusion 2
TTITLE12=Confusion and Conclusion 3
TTITLE13=Confusion and Conclusion 4
TTITLE14=Confusion and Conclusion 5
TTITLE15=Confusion and Conclusion 6
TTITLE16=Confusion and Conclusion 7
TTITLE17=Confusion and Conclusion 8
TTITLE18=Confusion and Conclusion 9
TTITLE19=Confusion and Conclusion 10
TTITLE20=Sanshana 1
TTITLE21=Sanshana 2
TTITLE22=Sanshana 3
TTITLE23=Cities at night 1
TTITLE24=Cities at night 2
TTITLE25=Cities at night 3
TTITLE26=Cities at night 4
TTITLE27=Cities at night 5
TTITLE28=Ennavoe 1
TTITLE29=Ennavoe 2
TTITLE30=Ennavoe 3
TTITLE31=Ennavoe Pathos 1
TTITLE32=Ennavoe Pathos 2
TTITLE33=Ennavoe Mood
TTITLE34=Jogging at Merina
TTITLE35=Evening at Juhu
TTITLE36=Amanda
TTITLE37=Festival Mood
TTITLE38=Aethuvum Ingey
EXTD=YEAR: 1999
EXTT0=
EXTT1=
EXTT2=
EXTT3=
EXTT4=
EXTT5=
EXTT6=
EXTT7=
EXTT8=
EXTT9=
EXTT10=
EXTT11=
EXTT12=
EXTT13=
EXTT14=
EXTT15=
EXTT16=
EXTT17=
EXTT18=
EXTT19=
EXTT20=
EXTT21=
EXTT22=
EXTT23=
EXTT24=
EXTT25=
EXTT26=
EXTT27=
EXTT28=
EXTT29=
EXTT30=
EXTT31=
EXTT32=
EXTT33=
EXTT34=
EXTT35=
EXTT36=
EXTT37=
EXTT38=
PLAYORDER=
